<svg width="48" height="29" viewBox="0 0 48 29" fill="none" xmlns="http://www.w3.org/2000/svg">
<path d="M5.552 29V0.0559993H6.632V29H5.552ZM0.8 29V0.0559993H1.88V29H0.8ZM3.176 29V0.0559993H4.256V29H3.176ZM7.928 1.136V0.0559993H22.292V1.136H7.928ZM7.928 3.512V2.432H22.292V3.512H7.928ZM7.928 5.888V4.808H22.292V5.888H7.928ZM7.928 12.692V11.612H20.24V12.692H7.928ZM7.928 15.068V13.988H20.24V15.068H7.928ZM7.928 17.444V16.364H20.24V17.444H7.928ZM28.1774 29L46.1414 0.0559993H47.4014L29.4374 29H28.1774ZM22.6334 29L40.5974 0.0559993H41.8574L23.8934 29H22.6334ZM25.4054 29L43.3694 0.0559993H44.6294L26.6654 29H25.4054ZM25.2254 1.136V0.0559993H39.0854L38.4374 1.136H25.2254ZM25.2254 3.512V2.432H37.6454L36.9614 3.512H25.2254ZM25.2254 5.888V4.808H36.1694L35.4854 5.888H25.2254ZM33.6854 24.248L34.3694 23.168H44.8094V24.248H33.6854ZM32.2094 26.624L32.8934 25.544H44.8094V26.624H32.2094ZM30.7694 29L31.4174 27.92H44.8094V29H30.7694Z" fill="#D3D3D3"/>
</svg>
