<svg width="387" height="76" viewBox="0 0 387 76" fill="none" xmlns="http://www.w3.org/2000/svg">
<rect y="0.939209" width="76.3036" height="74.6435" rx="37.3217" fill="#D65D38"/>
<rect x="48.355" y="9.43921" width="59.3036" height="57.6435" rx="28.8217" stroke="#5A4AAA" stroke-opacity="0.6" stroke-width="17"/>
<path d="M154.057 33.9471C153.65 29.2568 150.216 26.5977 145.452 26.5977C140.355 26.5977 136.329 29.9954 136.329 36.3108C136.329 42.5984 140.244 46.0238 145.452 46.0238C150.991 46.0238 153.798 42.1829 154.057 38.9699L148.849 38.9329C148.591 40.5487 147.446 41.5551 145.562 41.5551C143.06 41.5551 141.611 39.7824 141.611 36.3108C141.611 33.0238 143.014 31.0665 145.599 31.0665C147.575 31.0665 148.702 32.2298 148.849 33.9471H154.057ZM163.292 46.0238C167.908 46.0238 170.641 43.0693 170.641 38.7113C170.641 34.3534 167.908 31.3988 163.292 31.3988C158.675 31.3988 155.943 34.3534 155.943 38.7113C155.943 43.0693 158.675 46.0238 163.292 46.0238ZM163.329 42.2568C161.962 42.2568 161.15 40.8996 161.15 38.6744C161.15 36.4493 161.962 35.092 163.329 35.092C164.622 35.092 165.434 36.4493 165.434 38.6744C165.434 40.8996 164.622 42.2568 163.329 42.2568ZM172.71 45.7653H177.806V37.4926C177.806 36.2554 178.452 35.4983 179.505 35.4983C180.558 35.4983 181.241 36.2554 181.241 37.4926V45.7653H186.116V37.4926C186.116 36.2554 186.762 35.4983 187.815 35.4983C188.867 35.4983 189.55 36.2554 189.55 37.4926V45.7653H194.647V36.2C194.647 33.2916 192.782 31.3988 190.068 31.3988C187.962 31.3988 186.264 32.5437 185.783 34.2795H185.636C185.34 32.5437 183.752 31.3988 181.758 31.3988C179.791 31.3988 178.286 32.5068 177.695 34.2795H177.548V31.5835H172.71V45.7653ZM206.357 39.5608C206.366 40.9642 205.554 41.8136 204.289 41.8136C203.005 41.8136 202.267 40.9642 202.257 39.5608V31.5835H197.161V40.6318C197.17 43.7341 199.127 45.95 202.11 45.95C204.224 45.95 205.849 44.879 206.468 43.0693H206.615V45.7653H211.453V31.5835H206.357V39.5608ZM219.142 37.788C219.151 36.3846 219.945 35.5352 221.21 35.5352C222.494 35.5352 223.251 36.3846 223.242 37.788V45.7653H228.338V36.717C228.347 33.6332 226.399 31.3988 223.389 31.3988C221.303 31.3988 219.65 32.4883 219.031 34.2795H218.884V31.5835H214.046V45.7653H219.142V37.788ZM230.854 45.7653H235.951V31.5835H230.854V45.7653ZM233.402 30.1062C234.787 30.1062 235.914 29.0629 235.914 27.7795C235.914 26.4961 234.787 25.4528 233.402 25.4528C232.017 25.4528 230.891 26.4961 230.891 27.7795C230.891 29.0629 232.017 30.1062 233.402 30.1062ZM243.681 45.95C245.675 45.95 247.042 44.879 247.633 43.4386H247.744V45.7653H252.803V26.8562H247.707V34.0579H247.633C247.079 32.6176 245.749 31.3988 243.644 31.3988C240.837 31.3988 238.104 33.5409 238.104 38.6744C238.104 43.5863 240.653 45.95 243.681 45.95ZM245.565 42.0352C244.161 42.0352 243.349 40.7795 243.349 38.6744C243.349 36.5693 244.161 35.3136 245.565 35.3136C246.968 35.3136 247.817 36.5693 247.817 38.6744C247.817 40.7426 246.968 42.0352 245.565 42.0352ZM259.257 45.9869C261.104 45.9869 262.498 45.3591 263.356 43.771H263.467V45.7653H268.231V36.0523C268.231 33.4301 265.748 31.3988 261.694 31.3988C257.457 31.3988 255.37 33.6148 255.194 36.2H259.885C260.005 35.3228 260.651 34.9074 261.621 34.9074C262.507 34.9074 263.135 35.3136 263.135 36.0523V36.0892C263.135 36.9109 262.23 37.1694 259.848 37.3449C256.921 37.5572 254.641 38.739 254.641 41.8505C254.641 44.6758 256.543 45.9869 259.257 45.9869ZM260.919 42.7738C260.051 42.7738 259.442 42.3491 259.442 41.5551C259.442 40.8257 259.959 40.2625 261.141 40.0778C261.953 39.9486 262.636 39.7824 263.172 39.5608V40.7426C263.172 42.0352 262.073 42.7738 260.919 42.7738ZM284.451 31.5835H279.096L276.807 40.9642H276.659L274.369 31.5835H269.014L273.778 45.7653H279.687L284.451 31.5835Z" fill="#333333"/>
</svg>
