<svg width="240" height="46" viewBox="0 0 240 46" fill="none" xmlns="http://www.w3.org/2000/svg">
<path d="M21.4297 24.5625H29.0234C28.8984 26.9062 28.2578 28.9766 27.1016 30.7734C25.9609 32.5547 24.375 33.9531 22.3438 34.9688C20.3125 35.9688 17.8984 36.4688 15.1016 36.4688C12.8672 36.4688 10.8672 36.0859 9.10156 35.3203C7.33594 34.5547 5.83594 33.4609 4.60156 32.0391C3.38281 30.6016 2.44531 28.875 1.78906 26.8594C1.14844 24.8281 0.828125 22.5391 0.828125 19.9922V17.9062C0.828125 15.3594 1.16406 13.0703 1.83594 11.0391C2.50781 9.00781 3.46875 7.27344 4.71875 5.83594C5.96875 4.39844 7.46875 3.29688 9.21875 2.53125C10.9688 1.76562 12.9219 1.38281 15.0781 1.38281C17.9844 1.38281 20.4375 1.90625 22.4375 2.95312C24.4375 4 25.9844 5.4375 27.0781 7.26562C28.1875 9.09375 28.8516 11.1797 29.0703 13.5234H21.4531C21.3906 12.1953 21.1406 11.0781 20.7031 10.1719C20.2656 9.25 19.5938 8.55469 18.6875 8.08594C17.7812 7.61719 16.5781 7.38281 15.0781 7.38281C13.9844 7.38281 13.0234 7.58594 12.1953 7.99219C11.3828 8.39844 10.7031 9.03125 10.1562 9.89062C9.625 10.75 9.22656 11.8438 8.96094 13.1719C8.69531 14.4844 8.5625 16.0469 8.5625 17.8594V19.9922C8.5625 21.7891 8.67969 23.3438 8.91406 24.6562C9.14844 25.9688 9.52344 27.0547 10.0391 27.9141C10.5703 28.7734 11.25 29.4141 12.0781 29.8359C12.9062 30.2578 13.9141 30.4688 15.1016 30.4688C16.4609 30.4688 17.5938 30.2578 18.5 29.8359C19.4062 29.3984 20.1016 28.7422 20.5859 27.8672C21.0703 26.9922 21.3516 25.8906 21.4297 24.5625ZM40.2266 16.5469V36H32.9141V10.6406H39.7812L40.2266 16.5469ZM47.7969 10.4531L47.6797 17.2734C47.3672 17.2266 46.9609 17.1875 46.4609 17.1562C45.9609 17.1094 45.5312 17.0859 45.1719 17.0859C44.2344 17.0859 43.4219 17.2031 42.7344 17.4375C42.0625 17.6562 41.5 17.9844 41.0469 18.4219C40.6094 18.8594 40.2812 19.4062 40.0625 20.0625C39.8438 20.7031 39.7344 21.4453 39.7344 22.2891L38.3516 21.6094C38.3516 19.9375 38.5156 18.4062 38.8438 17.0156C39.1719 15.625 39.6484 14.4219 40.2734 13.4062C40.8984 12.375 41.6641 11.5781 42.5703 11.0156C43.4766 10.4531 44.5078 10.1719 45.6641 10.1719C46.0391 10.1719 46.4219 10.1953 46.8125 10.2422C47.2031 10.2891 47.5312 10.3594 47.7969 10.4531ZM62.2812 36.4688C60.2656 36.4688 58.4609 36.1484 56.8672 35.5078C55.2734 34.8672 53.9219 33.9844 52.8125 32.8594C51.7188 31.7188 50.8828 30.4062 50.3047 28.9219C49.7266 27.4375 49.4375 25.8516 49.4375 24.1641V23.2734C49.4375 21.3828 49.7031 19.6406 50.2344 18.0469C50.7656 16.4531 51.5391 15.0703 52.5547 13.8984C53.5859 12.7109 54.8516 11.7969 56.3516 11.1562C57.8516 10.5 59.5625 10.1719 61.4844 10.1719C63.2812 10.1719 64.8828 10.4688 66.2891 11.0625C67.6953 11.6406 68.8828 12.4766 69.8516 13.5703C70.8203 14.6484 71.5547 15.9531 72.0547 17.4844C72.5703 19 72.8281 20.7031 72.8281 22.5938V25.5938H52.3906V20.8828H65.6562V20.3203C65.6562 19.4297 65.4922 18.6484 65.1641 17.9766C64.8516 17.3047 64.3828 16.7891 63.7578 16.4297C63.1484 16.0547 62.375 15.8672 61.4375 15.8672C60.5469 15.8672 59.8047 16.0547 59.2109 16.4297C58.6172 16.8047 58.1406 17.3359 57.7812 18.0234C57.4375 18.6953 57.1875 19.4844 57.0312 20.3906C56.875 21.2812 56.7969 22.2422 56.7969 23.2734V24.1641C56.7969 25.1484 56.9297 26.0469 57.1953 26.8594C57.4609 27.6719 57.8516 28.3672 58.3672 28.9453C58.8828 29.5234 59.5078 29.9766 60.2422 30.3047C60.9766 30.6328 61.8125 30.7969 62.75 30.7969C63.9062 30.7969 65.0078 30.5781 66.0547 30.1406C67.1016 29.6875 68.0078 28.9844 68.7734 28.0312L72.1953 31.9453C71.6797 32.6953 70.9531 33.4219 70.0156 34.125C69.0938 34.8125 67.9844 35.375 66.6875 35.8125C65.3906 36.25 63.9219 36.4688 62.2812 36.4688ZM91.1562 30.3281V0H98.5156V36H91.9062L91.1562 30.3281ZM75.3594 23.625V23.1328C75.3594 21.2109 75.5703 19.4609 75.9922 17.8828C76.4297 16.2891 77.0625 14.9219 77.8906 13.7812C78.7344 12.625 79.7734 11.7344 81.0078 11.1094C82.2422 10.4844 83.6562 10.1719 85.25 10.1719C86.7188 10.1719 88 10.5 89.0938 11.1562C90.1875 11.7969 91.1172 12.7031 91.8828 13.875C92.6641 15.0312 93.2969 16.3984 93.7812 17.9766C94.2656 19.5391 94.6328 21.2344 94.8828 23.0625V23.9062C94.6484 25.6562 94.2812 27.2891 93.7812 28.8047C93.2969 30.3203 92.6641 31.6562 91.8828 32.8125C91.1172 33.9531 90.1797 34.8516 89.0703 35.5078C87.9766 36.1484 86.6875 36.4688 85.2031 36.4688C83.6094 36.4688 82.1953 36.1484 80.9609 35.5078C79.7422 34.8672 78.7188 33.9688 77.8906 32.8125C77.0625 31.6562 76.4297 30.2969 75.9922 28.7344C75.5703 27.1719 75.3594 25.4688 75.3594 23.625ZM82.6719 23.1328V23.625C82.6719 24.625 82.7422 25.5547 82.8828 26.4141C83.0391 27.2734 83.2891 28.0312 83.6328 28.6875C83.9766 29.3438 84.4297 29.8594 84.9922 30.2344C85.5547 30.5938 86.2422 30.7734 87.0547 30.7734C88.1484 30.7734 89.0469 30.5234 89.75 30.0234C90.4531 29.5078 90.9844 28.7969 91.3438 27.8906C91.7031 26.9844 91.8906 25.9297 91.9062 24.7266V22.2656C91.9062 21.2656 91.8047 20.3672 91.6016 19.5703C91.3984 18.7734 91.0938 18.1016 90.6875 17.5547C90.2969 17.0078 89.8047 16.5938 89.2109 16.3125C88.6172 16.0156 87.9141 15.8672 87.1016 15.8672C86.3047 15.8672 85.625 16.0547 85.0625 16.4297C84.5 16.7891 84.0391 17.2969 83.6797 17.9531C83.3359 18.6094 83.0781 19.3828 82.9062 20.2734C82.75 21.1484 82.6719 22.1016 82.6719 23.1328ZM111.102 10.6406V36H103.766V10.6406H111.102ZM103.32 4.07812C103.32 3.01563 103.695 2.14844 104.445 1.47656C105.195 0.789063 106.18 0.445312 107.398 0.445312C108.617 0.445312 109.602 0.789063 110.352 1.47656C111.117 2.14844 111.5 3.01563 111.5 4.07812C111.5 5.125 111.117 5.99219 110.352 6.67969C109.602 7.35156 108.617 7.6875 107.398 7.6875C106.18 7.6875 105.195 7.35156 104.445 6.67969C103.695 5.99219 103.32 5.125 103.32 4.07812ZM129.266 10.6406V15.7734H114.219V10.6406H129.266ZM117.664 4.35938H125V28.0547C125 28.7578 125.086 29.2969 125.258 29.6719C125.43 30.0469 125.711 30.3125 126.102 30.4688C126.492 30.6094 126.992 30.6797 127.602 30.6797C128.039 30.6797 128.414 30.6641 128.727 30.6328C129.039 30.6016 129.328 30.5625 129.594 30.5156V35.8125C128.969 36.0156 128.305 36.1719 127.602 36.2812C126.898 36.4062 126.133 36.4688 125.305 36.4688C123.727 36.4688 122.359 36.2109 121.203 35.6953C120.062 35.1797 119.188 34.3672 118.578 33.2578C117.969 32.1328 117.664 30.6719 117.664 28.875V4.35938ZM146.281 28.9453C146.281 28.4766 146.133 28.0625 145.836 27.7031C145.555 27.3438 145.039 27.0156 144.289 26.7188C143.555 26.4219 142.516 26.125 141.172 25.8281C139.906 25.5625 138.727 25.2188 137.633 24.7969C136.539 24.3594 135.586 23.8359 134.773 23.2266C133.961 22.6016 133.328 21.8672 132.875 21.0234C132.422 20.1641 132.195 19.1875 132.195 18.0938C132.195 17.0312 132.422 16.0234 132.875 15.0703C133.344 14.1172 134.016 13.2734 134.891 12.5391C135.781 11.8047 136.859 11.2266 138.125 10.8047C139.406 10.3828 140.859 10.1719 142.484 10.1719C144.719 10.1719 146.648 10.5234 148.273 11.2266C149.898 11.9141 151.148 12.8828 152.023 14.1328C152.898 15.3672 153.336 16.7812 153.336 18.375H146.023C146.023 17.7188 145.898 17.1484 145.648 16.6641C145.398 16.1797 145.016 15.8047 144.5 15.5391C143.984 15.2578 143.305 15.1172 142.461 15.1172C141.805 15.1172 141.227 15.2344 140.727 15.4688C140.242 15.6875 139.859 15.9922 139.578 16.3828C139.312 16.7734 139.18 17.2266 139.18 17.7422C139.18 18.1016 139.258 18.4297 139.414 18.7266C139.586 19.0078 139.844 19.2734 140.188 19.5234C140.547 19.7578 141.008 19.9688 141.57 20.1562C142.148 20.3438 142.852 20.5234 143.68 20.6953C145.445 21.0234 147.055 21.4844 148.508 22.0781C149.977 22.6719 151.148 23.4922 152.023 24.5391C152.914 25.5859 153.359 26.9688 153.359 28.6875C153.359 29.8125 153.102 30.8438 152.586 31.7812C152.086 32.7188 151.359 33.5391 150.406 34.2422C149.453 34.9453 148.312 35.4922 146.984 35.8828C145.656 36.2734 144.156 36.4688 142.484 36.4688C140.094 36.4688 138.07 36.0391 136.414 35.1797C134.758 34.3203 133.508 33.2422 132.664 31.9453C131.836 30.6328 131.422 29.2891 131.422 27.9141H138.289C138.32 28.7578 138.531 29.4453 138.922 29.9766C139.328 30.5078 139.852 30.8984 140.492 31.1484C141.133 31.3828 141.852 31.5 142.648 31.5C143.445 31.5 144.109 31.3906 144.641 31.1719C145.172 30.9531 145.578 30.6562 145.859 30.2812C146.141 29.8906 146.281 29.4453 146.281 28.9453ZM171.992 8.36719L163.18 36H155.023L167.656 1.875H172.812L171.992 8.36719ZM179.305 36L170.469 8.36719L169.555 1.875H174.781L187.461 36H179.305ZM178.93 23.2969V29.2031H161.141V23.2969H178.93ZM196.32 15.5156V45.75H189.008V10.6406H195.828L196.32 15.5156ZM212.141 23.0391V23.5312C212.141 25.375 211.93 27.0859 211.508 28.6641C211.086 30.2266 210.453 31.5938 209.609 32.7656C208.781 33.9375 207.758 34.8516 206.539 35.5078C205.32 36.1484 203.906 36.4688 202.297 36.4688C200.766 36.4688 199.438 36.1484 198.312 35.5078C197.203 34.8516 196.266 33.9453 195.5 32.7891C194.75 31.6172 194.141 30.2812 193.672 28.7812C193.219 27.2656 192.867 25.6484 192.617 23.9297V22.9688C192.867 21.1406 193.227 19.4453 193.695 17.8828C194.164 16.3203 194.773 14.9688 195.523 13.8281C196.273 12.6719 197.203 11.7734 198.312 11.1328C199.422 10.4922 200.742 10.1719 202.273 10.1719C203.867 10.1719 205.281 10.4766 206.516 11.0859C207.75 11.6953 208.781 12.5703 209.609 13.7109C210.453 14.8359 211.086 16.1875 211.508 17.7656C211.93 19.3438 212.141 21.1016 212.141 23.0391ZM204.805 23.5312V23.0391C204.805 22.0078 204.727 21.0625 204.57 20.2031C204.414 19.3281 204.164 18.5703 203.82 17.9297C203.477 17.2734 203.023 16.7656 202.461 16.4062C201.898 16.0469 201.211 15.8672 200.398 15.8672C199.523 15.8672 198.781 16.0078 198.172 16.2891C197.562 16.5703 197.07 16.9844 196.695 17.5312C196.32 18.0625 196.047 18.7188 195.875 19.5C195.719 20.2812 195.633 21.1719 195.617 22.1719V24.75C195.633 25.9219 195.797 26.9688 196.109 27.8906C196.438 28.7969 196.945 29.5078 197.633 30.0234C198.336 30.5234 199.273 30.7734 200.445 30.7734C201.273 30.7734 201.961 30.5938 202.508 30.2344C203.07 29.8594 203.516 29.3359 203.844 28.6641C204.188 27.9922 204.43 27.2188 204.57 26.3438C204.727 25.4688 204.805 24.5312 204.805 23.5312ZM223.367 15.5156V45.75H216.055V10.6406H222.875L223.367 15.5156ZM239.188 23.0391V23.5312C239.188 25.375 238.977 27.0859 238.555 28.6641C238.133 30.2266 237.5 31.5938 236.656 32.7656C235.828 33.9375 234.805 34.8516 233.586 35.5078C232.367 36.1484 230.953 36.4688 229.344 36.4688C227.812 36.4688 226.484 36.1484 225.359 35.5078C224.25 34.8516 223.312 33.9453 222.547 32.7891C221.797 31.6172 221.188 30.2812 220.719 28.7812C220.266 27.2656 219.914 25.6484 219.664 23.9297V22.9688C219.914 21.1406 220.273 19.4453 220.742 17.8828C221.211 16.3203 221.82 14.9688 222.57 13.8281C223.32 12.6719 224.25 11.7734 225.359 11.1328C226.469 10.4922 227.789 10.1719 229.32 10.1719C230.914 10.1719 232.328 10.4766 233.562 11.0859C234.797 11.6953 235.828 12.5703 236.656 13.7109C237.5 14.8359 238.133 16.1875 238.555 17.7656C238.977 19.3438 239.188 21.1016 239.188 23.0391ZM231.852 23.5312V23.0391C231.852 22.0078 231.773 21.0625 231.617 20.2031C231.461 19.3281 231.211 18.5703 230.867 17.9297C230.523 17.2734 230.07 16.7656 229.508 16.4062C228.945 16.0469 228.258 15.8672 227.445 15.8672C226.57 15.8672 225.828 16.0078 225.219 16.2891C224.609 16.5703 224.117 16.9844 223.742 17.5312C223.367 18.0625 223.094 18.7188 222.922 19.5C222.766 20.2812 222.68 21.1719 222.664 22.1719V24.75C222.68 25.9219 222.844 26.9688 223.156 27.8906C223.484 28.7969 223.992 29.5078 224.68 30.0234C225.383 30.5234 226.32 30.7734 227.492 30.7734C228.32 30.7734 229.008 30.5938 229.555 30.2344C230.117 29.8594 230.562 29.3359 230.891 28.6641C231.234 27.9922 231.477 27.2188 231.617 26.3438C231.773 25.4688 231.852 24.5312 231.852 23.5312Z" fill="#8D3A9B"/>
</svg>
