<svg width="122" height="41" viewBox="0 0 122 41" fill="none" xmlns="http://www.w3.org/2000/svg">
<path d="M31.2815 12.4347L26.2864 13.9718C26.0519 12.903 25.495 11.9325 24.6914 11.1924C24.1949 10.7456 23.6139 10.4034 22.9829 10.1864C22.3519 9.96937 21.6839 9.88187 21.0185 9.92911C19.8466 9.8794 18.6971 10.2613 17.7864 11.0029C17.403 11.3122 17.093 11.7031 16.8788 12.1474C16.6647 12.5917 16.5517 13.0782 16.5481 13.5717C16.5481 15.3194 17.5765 16.3932 19.6543 16.8143L23.642 17.5723C25.8804 17.9054 27.9464 18.9713 29.5185 20.6043C30.8908 22.067 31.6433 24.0071 31.6173 26.0156C31.6237 27.2067 31.3782 28.3855 30.897 29.4744C30.4158 30.5632 29.71 31.5373 28.8259 32.3323C26.761 34.1782 24.0532 35.1317 21.2914 34.9853C19.6323 35.0077 17.9828 34.7296 16.4222 34.1642C15.1113 33.7349 13.9134 33.0153 12.9173 32.0586C12.0722 31.2126 11.3641 30.2393 10.8185 29.174C10.3494 28.1454 10.072 27.0392 10 25.9104L15.163 24.5207C15.2616 25.9824 15.8973 27.3553 16.9469 28.3739C18.1763 29.4439 19.7709 29.9948 21.3963 29.9109C22.6119 29.9754 23.8146 29.6348 24.8173 28.9424C25.2085 28.6463 25.5231 28.2604 25.735 27.8171C25.9468 27.3738 26.0495 26.886 26.0346 26.3946C26.0319 26.001 25.9507 25.6119 25.7957 25.2503C25.6407 24.8886 25.415 24.5618 25.1321 24.2891C24.4338 23.6103 23.5496 23.1558 22.5926 22.9836L18.6049 22.1835C16.5261 21.8253 14.6109 20.8241 13.1272 19.3199C11.749 17.8865 10.9942 15.9631 11.0284 13.9718C11.0209 12.7683 11.2785 11.5781 11.7828 10.4861C12.2871 9.39412 13.0257 8.42742 13.9457 7.6551C15.888 5.89798 18.4247 4.9493 21.0395 5.00209C22.5307 4.97773 24.0148 5.21283 25.4259 5.69693C26.5886 6.05836 27.6518 6.6854 28.5321 7.52877C29.2479 8.22514 29.8625 9.01898 30.358 9.887C30.7767 10.6916 31.0872 11.5483 31.2815 12.4347Z" fill="#6633FF"/>
<path d="M34.6185 19.9513C34.5501 17.9575 34.8995 15.9715 35.6443 14.1217C36.389 12.272 37.5125 10.5996 38.942 9.2129C41.7486 6.56429 45.4567 5.0896 49.3099 5.0896C53.1631 5.0896 56.8712 6.56429 59.6778 9.2129C62.4526 12.1241 64.0013 15.9969 64.0013 20.025C64.0013 24.053 62.4526 27.9258 59.6778 30.837C56.8712 33.4857 53.1631 34.9604 49.3099 34.9604C45.4567 34.9604 41.7486 33.4857 38.942 30.837C37.4925 29.4344 36.3573 27.7382 35.6119 25.8612C34.8664 23.9843 34.5278 21.9697 34.6185 19.9513V19.9513ZM43.0136 12.8555C41.3075 14.8067 40.3668 17.3137 40.3668 19.9092C40.3668 22.5047 41.3075 25.0116 43.0136 26.9628C44.7087 28.5896 46.9641 29.4976 49.3099 29.4976C51.6557 29.4976 53.9111 28.5896 55.6062 26.9628C57.3249 25.0178 58.274 22.5085 58.274 19.9092C58.274 17.3099 57.3249 14.8006 55.6062 12.8555C53.9038 11.243 51.6512 10.3448 49.3099 10.3448C46.9686 10.3448 44.716 11.243 43.0136 12.8555V12.8555Z" fill="#6633FF"/>
<path d="M82.9321 34.2694L77.3284 23.2362H74.4321V34.2694H68.7654V5.61264H79.9309C81.145 5.55518 82.358 5.74786 83.495 6.1788C84.632 6.60973 85.669 7.26979 86.542 8.11826C87.3666 8.94393 88.0137 9.93047 88.4433 11.0169C88.8728 12.1034 89.0758 13.2667 89.0395 14.435C89.0875 16.2902 88.5107 18.1076 87.4025 19.5936C86.2979 21.0608 84.7289 22.1077 82.9531 22.5624L89.0815 34.2904L82.9321 34.2694ZM74.537 18.4145H79.0494C80.2434 18.4862 81.4204 18.1026 82.3445 17.3406C82.7227 16.9661 83.0174 16.5153 83.2092 16.0181C83.4009 15.5208 83.4853 14.9884 83.4568 14.456C83.4762 13.9159 83.3815 13.3778 83.179 12.877C82.9764 12.3763 82.6706 11.9241 82.2815 11.5503C81.3595 10.7827 80.1829 10.3917 78.9864 10.4554H74.4321L74.537 18.4145Z" fill="#6633FF"/>
<path d="M99.6172 34.2694H93.9506V5.6127H112V10.8977H99.5753V17.9724H110.741V23.1099H99.6172V34.2694Z" fill="#6633FF"/>
</svg>
